<svg id="heart1" xmlns="http://www.w3.org/2000/svg" width="22.2" height="22.2" viewBox="0 0 22.2 22.2">
  <path id="heart1_copy_" data-name="heart1 copy_" d="M12.5,23.6a1.777,1.777,0,0,1-1-.4c-.6-.6-1.2-1.2-1.8-1.7L9,20.7a40.749,40.749,0,0,1-5.4-5.6A9.707,9.707,0,0,1,1.4,9,8.775,8.775,0,0,1,3.2,3.6,5.782,5.782,0,0,1,7.7,1.4a5.426,5.426,0,0,1,3.6,1.4,5.241,5.241,0,0,1,1,1.1l.2.2.2-.2a10.949,10.949,0,0,1,1-1.1,5.239,5.239,0,0,1,3.6-1.4,5.637,5.637,0,0,1,4.5,2.2A8.987,8.987,0,0,1,23.6,9a9.707,9.707,0,0,1-2.2,6.1A57.9,57.9,0,0,1,16,20.8c-.7.7-1.6,1.5-2.5,2.4a1.777,1.777,0,0,1-1,.4ZM7.7,3.5A4.073,4.073,0,0,0,4.5,5,7.321,7.321,0,0,0,3.2,9,7.7,7.7,0,0,0,5,13.8a44.242,44.242,0,0,0,5.2,5.4c.7.6,1.4,1.3,2.2,2.1l.1.1,2.3-2.2A52.861,52.861,0,0,0,20,13.8,8.337,8.337,0,0,0,21.8,9a6.394,6.394,0,0,0-1.3-4,4.341,4.341,0,0,0-3.2-1.6,3.471,3.471,0,0,0-2.5,1,6.228,6.228,0,0,0-1.4,1.8.961.961,0,0,1-.9.6.6.6,0,0,1-.4-.1,1.205,1.205,0,0,1-.5-.5,6.228,6.228,0,0,0-1.4-1.8,3.84,3.84,0,0,0-2.5-.9Z" transform="translate(-1.4 -1.4)"/>
</svg>
