<?xml version="1.0" encoding="utf-8"?>
<!-- Generator: Adobe Illustrator 25.4.1, SVG Export Plug-In . SVG Version: 6.00 Build 0)  -->
<svg version="1.1" id="heart1" xmlns="http://www.w3.org/2000/svg" xmlns:xlink="http://www.w3.org/1999/xlink" x="0px" y="0px"
	 viewBox="0 0 22.2 22.2" style="enable-background:new 0 0 22.2 22.2;" xml:space="preserve">
<path d="M11.3,20.6c-0.3,0-0.7-0.1-0.9-0.4c-0.5-0.5-1-1-1.5-1.4l-0.6-0.7c-1.6-1.4-3.1-2.9-4.4-4.6C2.7,12.1,2,10.3,2,8.5
	c0-1.6,0.5-3.2,1.5-4.5c0.9-1.2,2.3-1.9,3.8-1.9c1.1,0,2.2,0.4,3.1,1.2c0.3,0.3,0.6,0.6,0.8,0.9l0,0l0,0c0.2-0.3,0.5-0.6,0.8-0.9
	c0.8-0.8,1.9-1.2,3-1.2c1.5,0,3,0.7,3.9,1.9c1,1.3,1.5,2.9,1.5,4.5c0,1.9-0.7,3.7-1.8,5.1c-1.4,1.7-2.9,3.2-4.5,4.7
	c-0.3,0.3-0.6,0.6-0.9,0.9c-0.4,0.3-0.8,0.7-1.1,1.1C12,20.5,11.7,20.6,11.3,20.6L11.3,20.6L11.3,20.6z M7.3,4.1
	c-1,0-1.9,0.4-2.5,1.2c-0.6,0.9-1,2-1,3.2c0,1.4,0.5,2.8,1.4,3.8c1.3,1.6,2.7,3.1,4.3,4.4c0.6,0.5,1.1,1.1,1.8,1.7l1.8-1.7
	c1.5-1.4,3-2.9,4.3-4.4c0.9-1.1,1.4-2.4,1.4-3.8c0-1.1-0.3-2.3-1-3.2c-0.6-0.8-1.5-1.2-2.5-1.2c0,0,0,0,0,0c-0.8,0-1.4,0.3-1.9,0.8
	c-0.5,0.4-0.8,0.9-1.1,1.4c-0.1,0.3-0.5,0.6-0.9,0.6c0,0,0,0,0,0c-0.2,0-0.3,0-0.4-0.1c-0.2-0.1-0.4-0.3-0.5-0.5
	c-0.3-0.5-0.7-1-1.1-1.4C8.8,4.4,8.1,4.1,7.3,4.1L7.3,4.1z"/>
</svg>
