<svg id="heart1" xmlns="http://www.w3.org/2000/svg" width="25" height="25" viewBox="0 0 25 25">
  <path id="heart1_copy3" data-name="heart1 copy3" d="M5.4,45.8a1.673,1.673,0,0,1-1.164-.49c-.988-.968-1.934-1.868-2.76-2.661l0-.005a54.839,54.839,0,0,1-6.081-6.4A11.219,11.219,0,0,1-7.1,29.373,9.526,9.526,0,0,1-5.081,23.3a6.567,6.567,0,0,1,5.112-2.5A6,6,0,0,1,4.06,22.364,8.331,8.331,0,0,1,5.4,23.844a8.755,8.755,0,0,1,1.34-1.485A6.027,6.027,0,0,1,10.769,20.8a6.543,6.543,0,0,1,5.112,2.5A9.526,9.526,0,0,1,17.9,29.367a11.245,11.245,0,0,1-2.49,6.881,54.44,54.44,0,0,1-6.081,6.4c-.789.75-1.767,1.687-2.77,2.666A1.653,1.653,0,0,1,5.4,45.8ZM.031,23.157a4.583,4.583,0,0,0-3.573,1.735A7.014,7.014,0,0,0-5,29.373,8.721,8.721,0,0,0-3,34.753a52.942,52.942,0,0,0,5.825,6.1c.779.74,1.653,1.575,2.57,2.469.941-.915,1.843-1.772,2.57-2.469l.01-.011a53.268,53.268,0,0,0,5.82-6.1,8.731,8.731,0,0,0,2-5.38,7.035,7.035,0,0,0-1.463-4.481,4.583,4.583,0,0,0-3.573-1.735,4.1,4.1,0,0,0-2.746,1.064,7.109,7.109,0,0,0-1.563,2.027,1.168,1.168,0,0,1-2.119,0,7.257,7.257,0,0,0-1.563-2.027A4.124,4.124,0,0,0,.031,23.157Z" transform="translate(7.1 -20.8)"/>
</svg>
