<svg id="instagram" xmlns="http://www.w3.org/2000/svg" width="25" height="25" viewBox="0 0 25 25">
  <g id="그룹_526" data-name="그룹 526">
    <circle id="타원_81" data-name="타원 81" cx="12.5" cy="12.5" r="12.5" fill="#383838"/>
  </g>
  <g id="instagram-2" data-name="instagram" transform="translate(4.277 4.157)">
    <path id="패스_63" data-name="패스 63" d="M10.973,0H4.988A4.988,4.988,0,0,0,0,4.988v5.985a4.988,4.988,0,0,0,4.988,4.988h5.985a4.988,4.988,0,0,0,4.988-4.988V4.988A4.988,4.988,0,0,0,10.973,0Zm3.492,10.973a3.5,3.5,0,0,1-3.492,3.492H4.988A3.5,3.5,0,0,1,1.5,10.973V4.988A3.5,3.5,0,0,1,4.988,1.5h5.985a3.5,3.5,0,0,1,3.492,3.492Z" fill="#fff"/>
    <path id="패스_64" data-name="패스 64" d="M131.99,128a3.99,3.99,0,1,0,3.99,3.99A3.99,3.99,0,0,0,131.99,128Zm0,6.484a2.494,2.494,0,1,1,2.494-2.494A2.5,2.5,0,0,1,131.99,134.484Z" transform="translate(-124.01 -124.01)" fill="#fff"/>
    <circle id="타원_76" data-name="타원 76" cx="0.532" cy="0.532" r="0.532" transform="translate(11.738 3.159)" fill="#fff"/>
  </g>
</svg>
