<svg id="twitter" xmlns="http://www.w3.org/2000/svg" width="25" height="25" viewBox="0 0 25 25">
  <circle id="타원_82" data-name="타원 82" cx="12.5" cy="12.5" r="12.5" fill="#383838"/>
  <path id="twitter_1_" data-name="twitter (1)" d="M14.994,49.442a6.408,6.408,0,0,1-1.771.485,3.057,3.057,0,0,0,1.352-1.7,6.143,6.143,0,0,1-1.949.744,3.074,3.074,0,0,0-5.317,2.1,3.165,3.165,0,0,0,.071.7A8.7,8.7,0,0,1,1.044,48.56a3.075,3.075,0,0,0,.945,4.108A3.036,3.036,0,0,1,.6,52.29v.034a3.088,3.088,0,0,0,2.463,3.02,3.068,3.068,0,0,1-.806.1,2.718,2.718,0,0,1-.582-.052,3.1,3.1,0,0,0,2.872,2.141A6.176,6.176,0,0,1,.736,58.845,5.759,5.759,0,0,1,0,58.8a8.654,8.654,0,0,0,4.716,1.379,8.689,8.689,0,0,0,8.749-8.747c0-.136,0-.267-.011-.4A6.132,6.132,0,0,0,14.994,49.442Z" transform="translate(4.949 -41.349)" fill="#fff"/>
</svg>
