<svg id="youtube" xmlns="http://www.w3.org/2000/svg" width="25" height="25" viewBox="0 0 25 25">
  <circle id="타원_84" data-name="타원 84" cx="12.5" cy="12.5" r="12.5" fill="#383838"/>
  <path id="youtube_1_" data-name="youtube (1)" d="M.341,13.031a2.019,2.019,0,0,0,1.385,1.4c1.636.446,10.8.447,12.463,0a2.026,2.026,0,0,0,1.385-1.4,23.037,23.037,0,0,0-.02-7.919l.02.13a2.019,2.019,0,0,0-1.385-1.4c-1.614-.438-10.805-.455-12.463,0a2.028,2.028,0,0,0-1.385,1.4,21.46,21.46,0,0,0,0,7.789Zm6.024-1.474V6.722l4.154,2.421Z" transform="translate(4.555 3.148)" fill="#fff"/>
</svg>
